<svg width="28" height="28" viewBox="0 0 28 28" fill="none" xmlns="http://www.w3.org/2000/svg">
<path fill-rule="evenodd" clip-rule="evenodd" d="M8.75 0.875C6.66142 0.875 4.65838 1.70469 3.18153 3.18153C1.70469 4.65838 0.875 6.66142 0.875 8.75V19.25C0.875 21.3386 1.70469 23.3416 3.18153 24.8185C4.65838 26.2953 6.66142 27.125 8.75 27.125H19.25C21.3386 27.125 23.3416 26.2953 24.8185 24.8185C26.2953 23.3416 27.125 21.3386 27.125 19.25V8.75C27.125 6.66142 26.2953 4.65838 24.8185 3.18153C23.3416 1.70469 21.3386 0.875 19.25 0.875H8.75ZM2.625 8.75C2.625 5.36667 5.36667 2.625 8.75 2.625H19.25C22.6333 2.625 25.375 5.36667 25.375 8.75V19.25C25.375 22.6333 22.6333 25.375 19.25 25.375H8.75C7.12555 25.375 5.56763 24.7297 4.41897 23.581C3.27031 22.4324 2.625 20.8745 2.625 19.25V8.75ZM22.75 7.29167C22.75 7.67844 22.5964 8.04937 22.3229 8.32286C22.0494 8.59635 21.6784 8.75 21.2917 8.75C20.9049 8.75 20.534 8.59635 20.2605 8.32286C19.987 8.04937 19.8333 7.67844 19.8333 7.29167C19.8333 6.90489 19.987 6.53396 20.2605 6.26047C20.534 5.98698 20.9049 5.83333 21.2917 5.83333C21.6784 5.83333 22.0494 5.98698 22.3229 6.26047C22.5964 6.53396 22.75 6.90489 22.75 7.29167ZM14 9.04167C13.3489 9.04167 12.7041 9.16992 12.1025 9.4191C11.501 9.66828 10.9544 10.0335 10.4939 10.4939C10.0335 10.9544 9.66828 11.501 9.4191 12.1025C9.16992 12.7041 9.04167 13.3489 9.04167 14C9.04167 14.6511 9.16992 15.2959 9.4191 15.8975C9.66828 16.499 10.0335 17.0456 10.4939 17.5061C10.9544 17.9665 11.501 18.3317 12.1025 18.5809C12.7041 18.8301 13.3489 18.9583 14 18.9583C15.315 18.9583 16.5762 18.4359 17.5061 17.5061C18.4359 16.5762 18.9583 15.315 18.9583 14C18.9583 12.685 18.4359 11.4238 17.5061 10.4939C16.5762 9.56406 15.315 9.04167 14 9.04167ZM7.29167 14C7.29167 12.2208 7.99844 10.5145 9.25649 9.25649C10.5145 7.99844 12.2208 7.29167 14 7.29167C15.7792 7.29167 17.4855 7.99844 18.7435 9.25649C20.0016 10.5145 20.7083 12.2208 20.7083 14C20.7083 15.7792 20.0016 17.4855 18.7435 18.7435C17.4855 20.0016 15.7792 20.7083 14 20.7083C12.2208 20.7083 10.5145 20.0016 9.25649 18.7435C7.99844 17.4855 7.29167 15.7792 7.29167 14Z" fill="white"/>
</svg>
